<svg width="19" height="20" viewBox="0 0 19 20" fill="none" xmlns="http://www.w3.org/2000/svg">
<path d="M15.1172 8.48827C15.1172 12.2623 10.9305 16.1927 9.52458 17.4066C9.3936 17.5051 9.23417 17.5584 9.0703 17.5584C8.90644 17.5584 8.74701 17.5051 8.61603 17.4066C7.21014 16.1927 3.02344 12.2623 3.02344 8.48827C3.02344 6.88454 3.66052 5.3465 4.79452 4.21249C5.92853 3.07849 7.46658 2.44141 9.0703 2.44141C10.674 2.44141 12.2121 3.07849 13.3461 4.21249C14.4801 5.3465 15.1172 6.88454 15.1172 8.48827Z" stroke="#64748B" stroke-width="1.51167" stroke-linecap="round" stroke-linejoin="round"/>
<path d="M9.07031 10.7559C10.3227 10.7559 11.3379 9.74063 11.3379 8.48828C11.3379 7.23593 10.3227 6.2207 9.07031 6.2207C7.81796 6.2207 6.80273 7.23593 6.80273 8.48828C6.80273 9.74063 7.81796 10.7559 9.07031 10.7559Z" stroke="#64748B" stroke-width="1.51167" stroke-linecap="round" stroke-linejoin="round"/>
</svg>
